<svg width="114" height="114" fill="none" xmlns="http://www.w3.org/2000/svg"><g clip-path="url(#clip0_34_476)" fill="#fff"><path d="M98.229 53.077c1.055-.385 1.674-1.17 2.193-1.831l.208-.263 1.08-1.338-1.493-.858c-2.123-1.224-2.419-3.495-2.762-6.127-.124-.948-.252-1.928-.475-2.883-.197-1.016-.787-1.54-1.247-1.813-1.412-.816-3.31-.174-4.865.381.394-4.348-1.903-7.37-4.12-10.287-3.52-4.716-9.141-7.867-14.176-10.328l-.076-.034c-.663-.279-1.327-.609-2.032-.958-1.752-.87-3.737-1.855-5.988-2.109-.527-.07-1.083-.18-1.67-.295-2.427-.479-5.397-1.064-7.985 1.037-1.115-.273-1.7.642-1.728.689-.647 1.045-.45 1.926-.046 2.59a49.95 49.95 0 01-1.572-.53c-1.456-.51-2.96-1.034-4.657-1.206l-.228-.023-.225.048c-.304.065-.659.145-.99.252a40.428 40.428 0 00-21.986 17.204c-11.736 18.966-5.834 43.956 13.156 55.706a41.505 41.505 0 002.384 1.368l-.042.254c-.118.675-.361 2.079.915 2.869l.042.025.043.023c1.623.861 3.304.517 4.788.213.705-.144 1.37-.28 1.97-.282.602.023 1.137.471 1.954 1.196.576.51 1.229 1.089 2.017 1.502 2.441 1.319 3.821-.763 4.41-1.651.12-.182.254-.383.388-.56.895 1.253 2.3 2.492 3.949 2.663 1.213.126 2.359-.363 3.228-1.376.315-.35.462-.754.535-1.123.211.076.426.162.623.24.98.393 2.618 1.05 3.5-.375l.058-.094.043-.102c1.454-3.405 4.016-4.552 7.409-3.316l.394.144.479-.1c.742-.155 1.51-.314 2.154-.678a40.45 40.45 0 0014.482-13.925c4.468-7.22 6.528-15.495 5.96-23.94zM76.339 88.38c-.194.11-.584.206-.984.292-4.395-1.43-8.158.103-10.28 4.156l-.234-.094c-.783-.313-1.757-.703-2.748-.67l-.082.004c-.755.068-1.671.516-1.748 2.27l-.01.204c-.29.286-.488.265-.59.255-.661-.07-1.617-.928-2.177-1.957l-.07-.127-.092-.112c-.641-.769-1.68-.937-2.424-.762l-.157.037-.146.07c-.98.473-1.559 1.345-2.023 2.046-.152.23-.368.554-.517.714a1.307 1.307 0 01-.06-.032c-.488-.254-.954-.668-1.447-1.106-.951-.843-2.134-1.891-3.845-1.936h-.035c-.908-.004-1.762.171-2.589.34-.878.18-1.664.341-2.294.24.11-.636.27-1.589-.277-2.48l-.218-.353-.371-.188a38.037 38.037 0 01-2.83-1.59c-17.61-10.896-23.084-34.07-12.2-51.658a37.491 37.491 0 0120.388-15.955 5.85 5.85 0 01.47-.124c1.268.16 2.48.584 3.757 1.03.968.338 1.969.688 3.054.945l.085.018c.704.123 2.574.451 3.428-.928l.077-.124.05-.136c.47-1.261-.227-2.184-.817-2.756 1.487-1.429 3.221-1.215 5.855-.695.607.12 1.235.243 1.882.329 1.764.199 3.354.988 5.037 1.823.702.348 1.427.708 2.162 1.019 4.707 2.303 9.935 5.223 13.078 9.435 2.21 2.907 3.957 5.205 3.5 8.613-.123.775.162 1.573.767 2.143.71.669 1.717.931 2.697.701l.371-.122c.569-.204 1.819-.65 2.398-.65.18.792.29 1.636.407 2.527.325 2.488.685 5.253 2.773 7.232a.83.83 0 01-.348.097l-.173.014-.165.055c-1.498.495-1.386 2.061-1.343 2.651l.002.036c.56 7.88-1.347 15.608-5.517 22.346A37.507 37.507 0 0176.339 88.38v.001z"/><path d="M51.813 47.808c1.219.754 3.41-.579 4.894-2.977 1.484-2.399 1.7-4.954.48-5.709-1.218-.754-3.41.58-4.894 2.977-1.484 2.399-1.699 4.955-.48 5.709zm15.766 9.754c1.218.754 3.41-.58 4.894-2.977 1.484-2.399 1.699-4.954.48-5.709-1.219-.754-3.41.58-4.894 2.977-1.484 2.399-1.7 4.954-.48 5.709zm10.855 9.699l2.056 1.346a25.87 25.87 0 01-15.843 10.81 25.954 25.954 0 01-19.464-3.271A25.954 25.954 0 0133.57 60.187c-1.64-6.663-.62-13.579 2.867-19.473l-1.88-1.113c-3.781 6.389-4.885 13.884-3.109 21.105 1.779 7.232 6.249 13.374 12.587 17.295 6.337 3.922 13.828 5.181 21.093 3.546 7.076-1.592 13.161-5.753 17.196-11.74l2.054 1.343.597-.913-5.944-3.889-.597.913z"/></g><defs><clipPath id="clip0_34_476"><path fill="#fff" transform="rotate(31.748 22.336 78.545)" d="M0 0h81v83H0z"/></clipPath></defs></svg>