<svg width="102" height="30" fill="none" xmlns="http://www.w3.org/2000/svg"><path d="M100.125 14.222c-.313-.121-.625-.225-.938-.339-.312-.104-.624-.21-.937-.31-.156-.045-.313-.015-.469.005-.156.019-.312.007-.468.01h-6.905l2.894-2.893 1.325-1.326.663-.663c.113-.108.215-.227.34-.324.124-.096.255-.186.334-.328.15-.291.296-.587.444-.882.14-.302.288-.596.423-.903.277-.607.542-1.225.776-1.876-.65.234-1.27.5-1.876.776-.307.135-.602.283-.903.423-.295.147-.59.293-.882.444-.142.079-.232.21-.328.335-.097.124-.216.226-.324.339l-.663.663-1.326 1.325-2.893 2.894V4.687c.003-.156-.009-.312.01-.468.02-.157.05-.313.005-.469-.1-.312-.206-.625-.31-.937-.114-.313-.218-.625-.339-.938A24.31 24.31 0 0087 0c-.295.625-.544 1.25-.778 1.875-.121.312-.225.625-.339.938-.104.312-.21.625-.31.937-.045.156-.015.312.005.469.019.156.007.312.01.468v6.905l-2.893-2.894-2.652-2.651-.886-.44c-.3-.142-.595-.288-.9-.425a28.423 28.423 0 00-1.864-.789c.242.643.51 1.258.79 1.863.136.306.282.601.424.901l.44.886 2.651 2.652 2.894 2.893H75.75l-.938.315c-.312.112-.624.218-.937.337-.625.232-1.25.477-1.875.76.625.283 1.25.528 1.875.76.313.119.625.224.937.336l.938.315h7.842l-2.894 2.894-2.651 2.651-.44.886c-.142.3-.288.596-.425.901a28.922 28.922 0 00-.789 1.863c.643-.242 1.258-.51 1.863-.788.306-.137.601-.284.901-.425l.886-.44 2.652-2.652 2.893-2.893v7.842l.315.937c.113.313.218.625.337.938.232.625.477 1.25.76 1.875a28.4 28.4 0 00.76-1.875c.119-.313.224-.625.336-.938l.315-.937v-7.842l2.894 2.893 1.326 1.326.663.663c.108.113.227.215.324.339.096.124.185.256.328.335.291.15.587.296.882.443.301.14.596.288.903.424.607.276 1.225.542 1.875.775a24.352 24.352 0 00-.775-1.876c-.135-.307-.283-.601-.424-.902-.147-.295-.292-.591-.443-.883-.079-.142-.21-.231-.335-.328-.124-.097-.226-.216-.339-.323l-.663-.663-1.326-1.326-2.893-2.894h6.904c.157.004.313-.008.47.011.155.02.312.05.468.005.312-.1.625-.206.937-.31.313-.114.625-.218.938-.34A24.35 24.35 0 00102 15a24.348 24.348 0 00-1.875-.778zm-72 0c-.313-.121-.625-.225-.938-.339-.312-.104-.625-.21-.937-.31-.156-.045-.313-.015-.469.005-.156.019-.312.007-.468.01h-6.905l2.894-2.893 1.325-1.326.663-.663c.113-.108.215-.227.34-.324.124-.096.255-.186.334-.328.15-.291.297-.587.444-.882.14-.302.288-.596.423-.903.277-.607.542-1.225.776-1.876-.65.234-1.27.5-1.876.776-.307.135-.602.283-.903.423-.295.147-.59.293-.882.444-.142.079-.232.21-.328.335-.097.124-.216.226-.324.339l-.663.663-1.326 1.325-2.893 2.894V4.687c.003-.156-.009-.312.01-.468.02-.157.05-.313.005-.469-.1-.312-.206-.625-.31-.937-.114-.313-.218-.625-.339-.938A24.31 24.31 0 0015 0c-.295.625-.544 1.25-.778 1.875-.121.312-.225.625-.339.938-.104.312-.21.625-.31.937-.045.156-.015.312.005.469.019.156.007.312.01.468v6.905l-2.893-2.894-2.652-2.651-.885-.44c-.3-.142-.596-.288-.902-.425a28.446 28.446 0 00-1.863-.789c.242.643.51 1.258.79 1.863.136.306.282.601.424.901l.44.886 2.651 2.652 2.894 2.893H3.75l-.938.315c-.312.112-.625.218-.937.337-.625.232-1.25.477-1.875.76.625.283 1.25.528 1.875.76.312.119.625.224.937.336l.938.315h7.842l-2.894 2.894-2.651 2.651-.44.886c-.142.3-.288.596-.425.901a28.922 28.922 0 00-.789 1.863 28.5 28.5 0 001.863-.788c.306-.137.601-.284.902-.425l.885-.44 2.652-2.652 2.893-2.893v7.842l.315.937c.113.313.218.625.337.938.232.625.477 1.25.76 1.875a28.4 28.4 0 00.76-1.875c.119-.313.224-.625.336-.938l.315-.937v-7.842l2.894 2.893 1.326 1.326.663.663c.108.113.227.215.323.339.097.124.186.256.329.335.291.15.587.296.882.443.301.14.596.288.902.424a24.63 24.63 0 001.876.775 24.352 24.352 0 00-.775-1.876c-.135-.307-.283-.601-.424-.902-.147-.295-.292-.591-.443-.883-.079-.142-.21-.231-.335-.328-.124-.097-.226-.216-.339-.323l-.663-.663-1.326-1.326-2.893-2.894h6.904c.157.004.313-.008.47.011.155.02.312.05.468.005.312-.1.625-.206.937-.31.313-.114.625-.218.938-.34.625-.233 1.25-.483 1.875-.777a24.364 24.364 0 00-1.875-.778zm36 0c-.313-.121-.625-.225-.938-.339-.312-.104-.624-.21-.937-.31-.156-.045-.313-.015-.469.005-.156.019-.312.007-.468.01h-6.905l2.894-2.893 1.325-1.326.663-.663c.113-.108.215-.227.34-.324.124-.096.255-.186.334-.328.15-.291.297-.587.444-.882.14-.302.288-.596.423-.903.277-.607.542-1.225.776-1.876-.65.234-1.27.5-1.876.776-.307.135-.602.283-.903.423-.295.147-.59.293-.882.444-.142.079-.232.21-.328.335-.097.124-.216.226-.324.339l-.663.663-1.326 1.325-2.893 2.894V4.687c.003-.156-.009-.312.01-.468.02-.157.05-.313.005-.469-.1-.312-.206-.625-.31-.937-.114-.313-.218-.625-.339-.938A24.31 24.31 0 0051 0c-.295.625-.544 1.25-.778 1.875-.121.312-.225.625-.339.938-.104.312-.21.625-.31.937-.045.156-.015.312.005.469.019.156.007.312.01.468v6.905l-2.893-2.894-2.652-2.651-.886-.44c-.3-.142-.595-.288-.9-.425a28.423 28.423 0 00-1.864-.789c.242.643.51 1.258.79 1.863.136.306.282.601.424.901l.44.886 2.651 2.652 2.894 2.893H39.75l-.938.315c-.312.112-.624.218-.937.337-.625.232-1.25.477-1.875.76.625.283 1.25.528 1.875.76.313.119.625.224.937.336l.938.315h7.842l-2.894 2.894-2.651 2.651-.44.886c-.142.3-.288.596-.425.901a28.922 28.922 0 00-.789 1.863c.643-.242 1.258-.51 1.863-.788.306-.137.601-.284.901-.425l.886-.44 2.652-2.652 2.893-2.893v7.842l.315.937c.113.313.218.625.337.938.232.625.477 1.25.76 1.875a28.4 28.4 0 00.76-1.875c.119-.313.224-.625.336-.938l.315-.937v-7.842l2.894 2.893 1.326 1.326.663.663c.108.113.227.215.324.339.096.124.185.256.328.335.291.15.587.296.882.443.301.14.596.288.902.424a24.63 24.63 0 001.876.775 24.352 24.352 0 00-.775-1.876c-.135-.307-.283-.601-.424-.902-.147-.295-.292-.591-.443-.883-.079-.142-.21-.231-.335-.328-.124-.097-.226-.216-.339-.323l-.663-.663-1.326-1.326-2.893-2.894h6.904c.157.004.313-.008.47.011.155.02.312.05.468.005.312-.1.625-.206.937-.31.313-.114.625-.218.938-.34.625-.233 1.25-.483 1.875-.777a24.364 24.364 0 00-1.875-.778z" fill="#fff"/></svg>